<svg width="9" height="16" viewBox="0 0 9 16" fill="none" xmlns="http://www.w3.org/2000/svg">
    <path d="M4.10041 1.16512C4.10024 1.16529 4.10004 1.16543 4.09987 1.16563L1.16439 4.11534C0.944478 4.33632 0.945296 4.69374 1.1663 4.91371C1.38728 5.13364 1.74471 5.1328 1.96464 4.91182L3.93548 2.93138L3.93548 14.8867C3.93548 15.1984 4.18822 15.4512 4.5 15.4512C4.81178 15.4512 5.06452 15.1984 5.06452 14.8867L5.06452 2.93141L7.03536 4.91179C7.25529 5.13277 7.61272 5.13362 7.8337 4.91368C8.05473 4.69372 8.05549 4.33626 7.83561 4.11531L4.90013 1.1656C4.89996 1.16543 4.89976 1.16529 4.89959 1.16509C4.67892 0.943999 4.32034 0.944706 4.10041 1.16512Z" fill="#2BC155" stroke="#2BC155"/>
</svg>
