<svg width="31" height="30" viewBox="0 0 31 30" fill="none" xmlns="http://www.w3.org/2000/svg">
    <path d="M15.4701 0.742188C7.43104 0.742188 0.914062 7.25915 0.914062 15.2983C0.914062 23.3374 7.43104 29.8543 15.4701 29.8543C23.5092 29.8543 30.0261 23.3373 30.0261 15.2983C30.0261 7.25921 23.5092 0.742188 15.4701 0.742188ZM22.8979 17.9055H18.6052L16.076 24.5846C15.9349 24.9572 15.5687 25.1817 15.1898 25.1631C14.811 25.1817 14.4447 24.9572 14.3036 24.5846L11.7743 17.9055H8.04225C7.54807 17.9055 7.14371 17.5012 7.14371 17.007C7.14371 16.5127 7.54801 16.1084 8.04225 16.1084H11.0938H13.0154H17.3641H19.2856H22.8978C23.392 16.1084 23.7963 16.5127 23.7963 17.007C23.7963 17.5012 23.3921 17.9055 22.8979 17.9055ZM22.8979 14.4312H19.9209H17.9993H12.3803H10.4588H8.04237C7.54819 14.4312 7.14383 14.0269 7.14383 13.5327C7.14383 13.0385 7.54813 12.6342 8.04237 12.6342H9.77826L7.92611 7.7431C7.7511 7.28093 7.98601 6.75958 8.44818 6.58462C8.91035 6.40961 9.43163 6.64458 9.60665 7.10669L11.6998 12.6342H18.6798L20.773 7.10669C20.948 6.64452 21.4693 6.40961 21.9314 6.58462C22.3936 6.75964 22.6285 7.28093 22.4535 7.7431L20.6013 12.6342H22.8978C23.392 12.6342 23.7964 13.0385 23.7964 13.5327C23.7964 14.0269 23.3921 14.4312 22.8979 14.4312Z" fill="#2BC155"/>
</svg>
