<svg width="45" height="45" viewBox="0 0 45 45" fill="none" xmlns="http://www.w3.org/2000/svg">
    <circle cx="22.5" cy="22.5" r="22.5" fill="#717579"/>
    <mask id="mask0" mask-type="alpha" maskUnits="userSpaceOnUse" x="5" y="5" width="35" height="35">
        <path d="M22.5 39.375C31.8198 39.375 39.375 31.8198 39.375 22.5C39.375 13.1802 31.8198 5.625 22.5 5.625C13.1802 5.625 5.625 13.1802 5.625 22.5C5.625 31.8198 13.1802 39.375 22.5 39.375Z" fill="#717579"/>
        <path d="M22.5 39.375C31.8198 39.375 39.375 31.8198 39.375 22.5C39.375 13.1802 31.8198 5.625 22.5 5.625C13.1802 5.625 5.625 13.1802 5.625 22.5C5.625 31.8198 13.1802 39.375 22.5 39.375Z" fill="#717579"/>
    </mask>
    <g mask="url(#mask0)">
        <path d="M21.7969 21.0938C26.0685 21.0938 29.5312 17.631 29.5312 13.3594C29.5312 9.0878 26.0685 5.625 21.7969 5.625C17.5253 5.625 14.0625 9.0878 14.0625 13.3594C14.0625 17.631 17.5253 21.0938 21.7969 21.0938Z" fill="#FF9800"/>
        <path d="M22.499 23.9062C17.3363 23.9062 7.03027 26.7328 7.03027 32.3438V36.5625H37.9678V32.3438C37.9678 26.7328 27.6617 23.9062 22.499 23.9062Z" fill="#FF9800"/>
    </g>
</svg>
