<svg width="60" height="60" viewBox="0 0 60 60" fill="none" xmlns="http://www.w3.org/2000/svg">
    <g clip-path="url(#clip0)">
        <path d="M40.4159 14.2475C39.2821 13.4391 38.0624 12.7588 36.7788 12.2188L35.3281 15.6794C36.3536 16.1116 37.3286 16.6554 38.2351 17.3009L40.4159 14.2475Z" fill="#B06800"/>
        <path d="M45.9304 20.4054C45.2529 19.1934 44.4427 18.0605 43.515 17.0273L40.7188 19.5309C41.4611 20.3612 42.11 21.2706 42.6536 22.2427L45.9304 20.4054Z" fill="#B06800"/>
        <path d="M43.9401 25.2949C46.266 33.2409 41.71 41.5679 33.764 43.8937C25.8181 46.2195 17.4911 41.6636 15.1653 33.7176C12.8394 25.7716 17.3954 17.4447 25.3414 15.1188C27.549 14.4727 29.8756 14.3432 32.1413 14.7403L32.7887 11.0413C31.7127 10.8558 30.6228 10.7622 29.5308 10.7617C19.1774 10.7751 10.7952 19.179 10.8086 29.5324C10.822 39.8859 19.2259 48.268 29.5793 48.2546C39.9327 48.2412 48.3148 39.8373 48.3015 29.4839C48.2991 27.7104 48.0452 25.9462 47.5472 24.244L43.9401 25.2949Z" fill="#B06800"/>
        <path d="M59.06 29.53L54.2519 22.9052L55.1058 14.7641L47.629 11.431L44.2959 3.95422L36.1548 4.80813L29.53 0L22.9052 4.80813L14.7641 3.95422L11.431 11.431L3.95422 14.7641L4.80813 22.9052L0 29.53L4.80813 36.1548L3.95422 44.2959L11.431 47.629L14.7641 55.1058L22.9052 54.2519L29.53 59.06L36.1548 54.2519L44.2959 55.1058L47.629 47.629L55.1058 44.2959L54.2519 36.1548L59.06 29.53ZM44.7839 44.7839L41.9688 51.0877L35.1151 50.3615L29.53 54.4245L23.9449 50.3615L17.0837 51.0802L14.2686 44.7764L7.96475 41.9613L8.69854 35.1151L4.63547 29.53L8.69854 23.9449L7.97226 17.0837L14.2761 14.2686L17.0912 7.96475L23.9524 8.68353L29.53 4.63547L35.1151 8.69854L41.9763 7.97976L44.7914 14.2836L51.0953 17.0987L50.3615 23.9449L54.4245 29.53L50.3615 35.1151L51.0802 41.9763L44.7839 44.7839Z" fill="#B06800"/>
        <path d="M21.474 28.2043L18.8203 30.858L25.7773 37.815L38.3643 25.2279L35.7107 22.5742L25.7773 32.5076L21.474 28.2043Z" fill="#B06800"/>
    </g>
    <defs>
        <clipPath id="clip0">
            <rect width="59.06" height="59.06" fill="white"/>
        </clipPath>
    </defs>
</svg>
