<svg width="90" height="90" viewBox="0 0 90 90" fill="none" xmlns="http://www.w3.org/2000/svg">
    <g clip-path="url(#clip0)">
        <path d="M81.4994 43.9432C81.8527 64.029 65.8473 80.6 45.7541 80.9477C25.6609 81.2955 9.09766 65.2981 8.7513 45.2086C8.40495 25.1191 24.3994 8.5453 44.4886 8.19943C64.5778 7.85355 81.1519 23.8491 81.4994 43.9432Z" fill="#F7931A"/>
        <path d="M59.2852 35.4124C58.7307 30.5477 54.4955 28.9874 49.1757 28.615L49.0597 21.8554L44.9442 21.9282L45.0562 28.5102C43.9756 28.5293 42.8702 28.5686 41.7725 28.611L41.6551 21.9867L37.5435 22.0584L37.6633 28.8143L29.3676 28.9719L29.4451 33.3668C29.4451 33.3668 32.4828 33.2559 32.4333 33.3129C34.0999 33.2845 34.6601 34.242 34.8319 35.0745L35.1544 53.5913C35.0903 54.1171 34.7966 54.9583 33.6319 54.9788C33.6856 55.0246 30.64 55.027 30.64 55.027L29.9098 59.9616L38.2034 59.8415L38.3244 66.6789L42.4343 66.6076L42.3171 59.8431C43.448 59.846 44.538 59.8365 45.6035 59.817L45.7191 66.5503L49.834 66.4777L49.7163 59.6526C56.6274 59.1344 61.4392 57.3072 61.9254 50.8055C62.3195 45.5669 59.8196 43.2756 55.8758 42.4004C58.2397 41.1416 59.6938 38.9761 59.2827 35.4157L59.2852 35.4124ZM53.781 50.1329C53.8692 55.2423 45.1141 54.8143 42.324 54.8649L42.1671 45.8069C44.9563 45.7588 53.6862 44.8045 53.7822 50.1318L53.781 50.1329ZM51.6479 37.3861C51.7283 42.0361 44.4223 41.6202 42.0981 41.6606L41.952 33.4439C44.277 33.4041 51.5612 32.5381 51.645 37.3865" fill="white"/>
    </g>
    <defs>
        <clipPath id="clip0">
            <rect width="72.7802" height="72.7802" fill="white" transform="translate(0.556641 18.8418) rotate(-15)"/>
        </clipPath>
    </defs>
</svg>

