<svg width="31" height="30" viewBox="0 0 31 30" fill="none" xmlns="http://www.w3.org/2000/svg">
    <path d="M20.3229 11.5501C20.3221 10.5456 19.5078 9.73158 18.5036 9.73047H13.0449V13.3695H18.5036C19.5078 13.3686 20.3221 12.5543 20.3229 11.5501Z" fill="#FFAB2D"/>
    <path d="M13.0449 19.4359H18.5036C19.5083 19.4359 20.3229 18.6213 20.3229 17.6165C20.3229 16.6115 19.5083 15.7969 18.5036 15.7969H13.0449V19.4359Z" fill="#FFAB2D"/>
    <path d="M15.4701 0.0273438C7.43104 0.0273438 0.914062 6.54433 0.914062 14.5834C0.914062 22.6224 7.43104 29.1394 15.4701 29.1394C23.5092 29.1394 30.0261 22.6224 30.0261 14.5834C30.0169 6.54813 23.5054 0.0365454 15.4701 0.0273438ZM22.7483 17.7024C22.7454 19.9984 20.8851 21.8587 18.5895 21.8612V22.901C18.5895 23.4753 18.1237 23.9408 17.5497 23.9408C16.9754 23.9408 16.5099 23.4753 16.5099 22.901V21.8612H14.4306V22.901C14.4306 23.4753 13.9648 23.9408 13.3909 23.9408C12.8165 23.9408 12.3511 23.4753 12.3511 22.901V21.8612H9.23203C8.65772 21.8612 8.19224 21.3958 8.19224 20.8218C8.19224 20.2475 8.65772 19.782 9.23203 19.782H10.2715V9.38478H9.23203C8.65772 9.38478 8.19224 8.9193 8.19224 8.34499C8.19224 7.77068 8.65772 7.30521 9.23203 7.30521H12.3511V6.26574C12.3511 5.69143 12.8165 5.22595 13.3909 5.22595C13.9652 5.22595 14.4306 5.69143 14.4306 6.26574V7.30521H16.5099V6.26574C16.5099 5.69143 16.9754 5.22595 17.5497 5.22595C18.124 5.22595 18.5895 5.69143 18.5895 6.26574V7.30521C20.8765 7.29569 22.7384 9.14173 22.7483 11.4288C22.7534 12.6399 22.2282 13.7927 21.3109 14.5834C22.2197 15.3652 22.7442 16.5034 22.7483 17.7024Z" fill="#FFAB2D"/>
</svg>
