<svg width="60" height="60" viewBox="0 0 60 60" fill="none" xmlns="http://www.w3.org/2000/svg">
    <path d="M29.9999 59.1654C46.1082 59.1654 59.1666 46.107 59.1666 29.9987C59.1666 13.8904 46.1082 0.832031 29.9999 0.832031C13.8916 0.832031 0.833252 13.8904 0.833252 29.9987C0.833252 46.107 13.8916 59.1654 29.9999 59.1654Z" fill="#F3BA2F"/>
    <path fill-rule="evenodd" clip-rule="evenodd" d="M22.8801 27.0755L30.0001 19.9546L37.1251 27.0796L41.2676 22.9355L30.0009 11.668L18.7359 22.9321L22.8792 27.0755H22.8801ZM19.9534 30.0005L15.8101 25.858L11.6667 30.0013L15.8101 34.1438L19.9534 30.0013V30.0005ZM30.0001 40.0463L22.8792 32.9263L18.7301 37.0638L18.7359 37.0696L30.0001 48.3338L41.2676 37.0655L41.2692 37.0638L37.1242 32.9221L30.0001 40.048V40.0463ZM44.1893 34.1463L48.3334 30.0013L44.1901 25.8588L40.0467 30.0021L44.1901 34.1446L44.1893 34.1463ZM34.2042 29.9996H34.2026L34.2059 30.0013L34.2042 30.0038L30.0001 34.208L25.7992 30.008L25.7934 30.0013L25.7992 29.9955L26.5359 29.2588L26.8926 28.9021L30.0001 25.7946L34.2042 29.9996Z" fill="white"/>
</svg>
