<svg width="40" height="40" viewBox="0 0 40 40" fill="none" xmlns="http://www.w3.org/2000/svg">
    <path d="M20.1332 0C9.30829 0 0.533203 8.77508 0.533203 19.6C0.533203 30.4249 9.30829 39.2 20.1332 39.2C30.9581 39.2 39.7332 30.4249 39.7332 19.6C39.7332 8.77508 30.9581 0 20.1332 0ZM20.1332 35.525C11.3516 35.525 4.2082 28.3808 4.2082 19.6C4.2082 10.8192 11.3516 3.675 20.1332 3.675C28.9148 3.675 36.0582 10.8184 36.0582 19.6C36.0582 28.3816 28.914 35.525 20.1332 35.525Z" fill="#F7931A"/>
    <path d="M21.1451 20.2362H18.5717V24.059H21.1451C21.6645 24.059 22.1463 23.8483 22.4844 23.4947C22.838 23.1557 23.0487 22.6747 23.0487 22.1398C23.0495 21.0937 22.1912 20.2362 21.1451 20.2362Z" fill="#F7931A"/>
    <path d="M20.1332 5.30831C12.2524 5.30831 5.84154 11.7191 5.84154 19.6C5.84154 27.4808 12.2524 33.8916 20.1332 33.8916C28.014 33.8916 34.4249 27.48 34.4249 19.6C34.4249 11.72 28.0132 5.30831 20.1332 5.30831ZM23.0414 26.2182H21.3558V28.8675H19.5877V26.2182H18.6167V28.8675H16.8404V26.2182H13.7175V24.5555H15.4406V14.5922H13.7175V12.9294H16.8404V10.3333H18.6167V12.9294H19.5877V10.3333H21.3558V12.9294H22.8911C23.7486 12.9294 24.5391 13.2831 25.1034 13.8474C25.6678 14.4117 26.0214 15.2022 26.0214 16.0597C26.0214 17.738 24.6967 19.1075 23.0414 19.1827C24.9826 19.1827 26.5481 20.7629 26.5481 22.7041C26.5481 24.638 24.9834 26.2182 23.0414 26.2182Z" fill="#F7931A"/>
    <path d="M22.2819 17.8882C22.5906 17.5795 22.7784 17.1655 22.7784 16.6992C22.7784 15.7739 22.0262 15.0209 21.1001 15.0209H18.5717V18.3848H21.1001C21.5591 18.3848 21.9805 18.1888 22.2819 17.8882Z" fill="#F7931A"/>
</svg>
