<svg width="22" height="22" viewBox="0 0 22 22" fill="none" xmlns="http://www.w3.org/2000/svg">
    <g clip-path="url(#clip0)">
        <path d="M17.6224 2.244H17.1824V1.122C17.1824 0.44 16.7204 0 16.0604 0C15.4004 0 14.9384 0.44 14.9384 1.122V2.244H7.63443V1.122C7.63443 0.44 7.19443 0 6.51243 0C5.83043 0 5.39043 0.44 5.39043 1.122V2.244H4.37843C2.24443 2.244 0.44043 4.048 0.44043 6.182V18.084C0.44043 20.218 2.24443 22.022 4.37843 22.022H17.6224C19.7564 22.022 21.5604 20.218 21.5604 18.084V6.182C21.5604 4.048 19.7564 2.244 17.6224 2.244V2.244ZM4.37843 4.488H17.6224C18.5244 4.488 19.3164 5.28 19.3164 6.182V7.744H2.68443V6.182C2.68443 5.28 3.47643 4.488 4.37843 4.488V4.488ZM17.6224 19.756H4.37843C3.47643 19.756 2.68443 18.964 2.68443 18.062V9.988H19.2944V18.062C19.3164 18.964 18.5244 19.756 17.6224 19.756Z" fill="black"/>
    </g>
    <defs>
        <clipPath id="clip0">
            <rect width="22" height="22" fill="white"/>
        </clipPath>
    </defs>
</svg>

