<svg width="40" height="39" viewBox="0 0 40 39" fill="none" xmlns="http://www.w3.org/2000/svg">
    <path d="M20.9091 38.1833H0.909063C0.363672 38.1833 0 37.8196 0 37.2741V35.4559C0 34.9105 0.363672 34.5469 0.909063 34.5469H20.9091C21.4545 34.5469 21.8181 34.9105 21.8181 35.4559V37.2741C21.8182 37.8196 21.4545 38.1833 20.9091 38.1833Z" fill="#F6B545"/>
    <path d="M17.2727 35.4559H0C0 34.9105 0.363672 34.5469 0.909063 34.5469H17.2727V35.4559Z" fill="#FFCB5B"/>
    <path d="M17.2727 35.4532V36.3623C17.2727 36.9077 16.9091 37.2713 16.3637 37.2713H0C0 37.8168 0.363672 38.1804 0.909063 38.1804H16.3636H20.9091C21.4545 38.1804 21.8181 37.8167 21.8181 37.2713V35.4531H17.2727V35.4532Z" fill="#F19920"/>
    <path d="M2.72742 37.2713V35.9077C2.72742 35.6349 2.54562 35.4531 2.27289 35.4531C2.00016 35.4531 1.81836 35.6349 1.81836 35.9077V37.2713" fill="#F19920"/>
    <path d="M5.45398 37.2713V35.9077C5.45398 35.6349 5.27219 35.4531 4.99945 35.4531C4.72672 35.4531 4.54492 35.6349 4.54492 35.9077V37.2713" fill="#F19920"/>
    <path d="M8.1825 37.2713V35.9077C8.1825 35.6349 8.0007 35.4531 7.72797 35.4531C7.45523 35.4531 7.27344 35.6349 7.27344 35.9077V37.2713" fill="#F19920"/>
    <path d="M10.9091 37.2713V35.9077C10.9091 35.6349 10.7273 35.4531 10.4545 35.4531C10.1818 35.4531 10 35.6349 10 35.9077V37.2713" fill="#F19920"/>
    <path d="M13.6356 37.2713V35.9077C13.6356 35.6349 13.4538 35.4531 13.1811 35.4531C12.9084 35.4531 12.7266 35.6349 12.7266 35.9077V37.2713" fill="#F19920"/>
    <path d="M16.3641 37.2713V35.9077C16.3641 35.6349 16.1823 35.4531 15.9096 35.4531C15.6369 35.4531 15.4551 35.6349 15.4551 35.9077V37.2713" fill="#F19920"/>
    <path d="M22.7274 34.5465H2.72742C2.18195 34.5465 1.81836 34.1828 1.81836 33.6374V31.8192C1.81836 31.2737 2.18203 30.9102 2.72742 30.9102H22.7274C23.2729 30.9102 23.6365 31.2738 23.6365 31.8192V33.6374C23.6365 34.1829 23.2729 34.5465 22.7274 34.5465Z" fill="#F6B545"/>
    <path d="M19.0911 31.8192H1.81836C1.81836 31.2737 2.18203 30.9102 2.72742 30.9102H19.0911V31.8192Z" fill="#FFCB5B"/>
    <path d="M19.0911 31.8165V32.7255C19.0911 33.271 18.7274 33.6346 18.182 33.6346H1.81836C1.81836 34.1801 2.18203 34.5437 2.72742 34.5437H18.182H22.7274C23.2729 34.5437 23.6365 34.18 23.6365 33.6346V31.8164H19.0911V31.8165Z" fill="#F19920"/>
    <path d="M4.54578 33.6346V32.2709C4.54578 31.9982 4.36398 31.8164 4.09125 31.8164C3.81852 31.8164 3.63672 31.9982 3.63672 32.2709V33.6346" fill="#F19920"/>
    <path d="M7.27234 33.6346V32.2709C7.27234 31.9982 7.09055 31.8164 6.81781 31.8164C6.54508 31.8164 6.36328 31.9982 6.36328 32.2709V33.6346" fill="#F19920"/>
    <path d="M10.0009 33.6346V32.2709C10.0009 31.9982 9.81906 31.8164 9.54633 31.8164C9.27359 31.8164 9.0918 31.9982 9.0918 32.2709V33.6346" fill="#F19920"/>
    <path d="M12.7274 33.6346V32.2709C12.7274 31.9982 12.5456 31.8164 12.2729 31.8164C12.0002 31.8164 11.8184 31.9982 11.8184 32.2709V33.6346" fill="#F19920"/>
    <path d="M15.454 33.6346V32.2709C15.454 31.9982 15.2722 31.8164 14.9995 31.8164C14.7267 31.8164 14.5449 31.9982 14.5449 32.2709V33.6346" fill="#F19920"/>
    <path d="M18.1825 33.6346V32.2709C18.1825 31.9982 18.0007 31.8164 17.728 31.8164C17.4552 31.8164 17.2734 31.9982 17.2734 32.2709V33.6346" fill="#F19920"/>
    <path d="M24.5458 27.273H4.54578C4.00031 27.273 3.63672 26.9094 3.63672 26.364V24.5458C3.63672 24.0003 4.00039 23.6367 4.54578 23.6367H24.5458C25.0913 23.6367 25.4549 24.0004 25.4549 24.5458V26.364C25.4549 26.9095 25.0913 27.273 24.5458 27.273Z" fill="#F6B545"/>
    <path d="M20.9095 24.5458H3.63672C3.63672 24.0003 4.00039 23.6367 4.54578 23.6367H20.9095V24.5458Z" fill="#FFCB5B"/>
    <path d="M20.9095 24.547V25.456C20.9095 26.0015 20.5458 26.3651 20.0004 26.3651H3.63672C3.63672 26.9105 4.00039 27.2741 4.54578 27.2741H20.0004H24.5459C25.0913 27.2741 25.4549 26.9105 25.4549 26.3651V24.5469H20.9095V24.547Z" fill="#F19920"/>
    <path d="M6.36414 26.3651V25.0014C6.36414 24.7287 6.18234 24.5469 5.90961 24.5469C5.63688 24.5469 5.45508 24.7287 5.45508 25.0014V26.3651" fill="#F19920"/>
    <path d="M9.0907 26.3651V25.0014C9.0907 24.7287 8.90891 24.5469 8.63617 24.5469C8.36344 24.5469 8.18164 24.7287 8.18164 25.0014V26.3651" fill="#F19920"/>
    <path d="M11.8192 26.3651V25.0014C11.8192 24.7287 11.6374 24.5469 11.3647 24.5469C11.092 24.5469 10.9102 24.7287 10.9102 25.0014V26.3651" fill="#F19920"/>
    <path d="M14.5458 26.3651V25.0014C14.5458 24.7287 14.364 24.5469 14.0912 24.5469C13.8185 24.5469 13.6367 24.7287 13.6367 25.0014V26.3651" fill="#F19920"/>
    <path d="M17.2723 26.3651V25.0014C17.2723 24.7287 17.0905 24.5469 16.8178 24.5469C16.5451 24.5469 16.3633 24.7287 16.3633 25.0014V26.3651" fill="#F19920"/>
    <path d="M20.0009 26.3651V25.0014C20.0009 24.7287 19.8191 24.5469 19.5463 24.5469C19.2736 24.5469 19.0918 24.7287 19.0918 25.0014V26.3651" fill="#F19920"/>
    <path d="M22.7274 23.6363H2.72742C2.18195 23.6363 1.81836 23.2727 1.81836 22.7273V20.9091C1.81836 20.3636 2.18203 20 2.72742 20H22.7274C23.2729 20 23.6365 20.3637 23.6365 20.9091V22.7273C23.6365 23.2727 23.2729 23.6363 22.7274 23.6363Z" fill="#F6B545"/>
    <path d="M19.0911 20.9091H1.81836C1.81836 20.3636 2.18203 20 2.72742 20H19.0911V20.9091Z" fill="#FFCB5B"/>
    <path d="M19.0911 20.9102V21.8193C19.0911 22.3648 18.7274 22.7284 18.182 22.7284H1.81836C1.81836 23.2738 2.18203 23.6374 2.72742 23.6374H18.182H22.7274C23.2729 23.6374 23.6365 23.2738 23.6365 22.7284V20.9102H19.0911V20.9102Z" fill="#F19920"/>
    <path d="M4.54578 22.7284V21.3647C4.54578 21.092 4.36398 20.9102 4.09125 20.9102C3.81852 20.9102 3.63672 21.092 3.63672 21.3647V22.7284" fill="#F19920"/>
    <path d="M7.27234 22.7284V21.3647C7.27234 21.092 7.09055 20.9102 6.81781 20.9102C6.54508 20.9102 6.36328 21.092 6.36328 21.3647V22.7284" fill="#F19920"/>
    <path d="M10.0009 22.7284V21.3647C10.0009 21.092 9.81906 20.9102 9.54633 20.9102C9.27359 20.9102 9.0918 21.092 9.0918 21.3647V22.7284" fill="#F19920"/>
    <path d="M12.7274 22.7284V21.3647C12.7274 21.092 12.5456 20.9102 12.2729 20.9102C12.0002 20.9102 11.8184 21.092 11.8184 21.3647V22.7284" fill="#F19920"/>
    <path d="M15.454 22.7284V21.3647C15.454 21.092 15.2722 20.9102 14.9995 20.9102C14.7267 20.9102 14.5449 21.092 14.5449 21.3647V22.7284" fill="#F19920"/>
    <path d="M18.1825 22.7284V21.3647C18.1825 21.092 18.0007 20.9102 17.728 20.9102C17.4552 20.9102 17.2734 21.092 17.2734 21.3647V22.7284" fill="#F19920"/>
    <path d="M20.9091 30.9098H0.909063C0.363672 30.9098 0 30.5462 0 30.0007V28.1825C0 27.637 0.363672 27.2734 0.909063 27.2734H20.9091C21.4545 27.2734 21.8181 27.6371 21.8181 28.1825V30.0007C21.8182 30.5462 21.4545 30.9098 20.9091 30.9098Z" fill="#F6B545"/>
    <path d="M17.2727 28.1825H0C0 27.637 0.363672 27.2734 0.909063 27.2734H17.2727V28.1825Z" fill="#FFCB5B"/>
    <path d="M17.2727 28.1837V29.0927C17.2727 29.6382 16.9091 30.0018 16.3637 30.0018H0C0 30.5473 0.363672 30.9109 0.909063 30.9109H16.3636H20.9091C21.4545 30.9109 21.8181 30.5472 21.8181 30.0018V28.1836H17.2727V28.1837Z" fill="#F19920"/>
    <path d="M2.72742 30.0018V28.6381C2.72742 28.3654 2.54562 28.1836 2.27289 28.1836C2.00016 28.1836 1.81836 28.3654 1.81836 28.6381V30.0018" fill="#F19920"/>
    <path d="M5.45398 30.0018V28.6381C5.45398 28.3654 5.27219 28.1836 4.99945 28.1836C4.72672 28.1836 4.54492 28.3654 4.54492 28.6381V30.0018" fill="#F19920"/>
    <path d="M8.1825 30.0018V28.6381C8.1825 28.3654 8.0007 28.1836 7.72797 28.1836C7.45523 28.1836 7.27344 28.3654 7.27344 28.6381V30.0018" fill="#F19920"/>
    <path d="M10.9091 30.0018V28.6381C10.9091 28.3654 10.7273 28.1836 10.4545 28.1836C10.1818 28.1836 10 28.3654 10 28.6381V30.0018" fill="#F19920"/>
    <path d="M13.6356 30.0018V28.6381C13.6356 28.3654 13.4538 28.1836 13.1811 28.1836C12.9084 28.1836 12.7266 28.3654 12.7266 28.6381V30.0018" fill="#F19920"/>
    <path d="M16.3641 30.0018V28.6381C16.3641 28.3654 16.1823 28.1836 15.9096 28.1836C15.6369 28.1836 15.4551 28.3654 15.4551 28.6381V30.0018" fill="#F19920"/>
    <path d="M38.1824 32.2727C37.0006 31.4545 36.3642 30.0909 36.3642 28.6364C36.3642 23.0909 34.1824 17.8182 30.2733 13.9091L26.3642 10.0001V7.27281L29.546 3.27281C29.8188 2.90914 30.0006 2.45461 30.0006 2C30.0006 0.909063 29.0916 0 28.0006 0H24.5461L23.637 1.8182L21.8188 0H17.4552C16.3642 0 15.4552 0.909063 15.4552 2C15.4552 2.45453 15.637 2.90906 15.9097 3.27273L19.0915 7.27273V10L15.1824 13.9091C11.2734 17.8181 9.09148 23.0909 9.09148 28.6363C9.09148 30.0909 8.45516 31.4545 7.27328 32.2727C6.09141 33.0908 5.45508 34.4545 5.45508 35.909C5.45508 37.1817 6.45508 38.1817 7.72781 38.1817H37.7278C39.0005 38.1817 40.0005 37.1817 40.0005 35.909C40.0006 34.4546 39.3643 33.0909 38.1824 32.2727Z" fill="#C97629"/>
    <path d="M38.1813 32.2727C36.9995 31.3637 36.3631 30 36.3631 28.5455C36.454 22.8182 33.8176 17.4545 29.8176 13.3637L26.3631 10V7.27273L29.5448 3.27273C30.0903 2.63641 30.1812 1.72727 29.7266 0.909062C29.363 0.272734 28.6357 0 27.9084 0C27.2721 0 26.9084 0.727266 27.0902 1.27273C27.1812 1.45453 27.272 1.72727 27.272 2C27.272 2.45453 27.0902 2.90906 26.8175 3.27273L23.6357 7.27273V10H19.0902L18.1812 10.9091H24.5448L27.9085 14.2727C31.6358 18 33.0903 23.0909 32.7267 28.2727C32.6358 29.8182 33.2722 31.2727 34.454 32.1818C34.5449 32.2727 34.6358 32.3636 34.7267 32.3636C36.0904 33.8181 34.9085 36.2727 32.8177 36.2727H5.54492C5.72672 37.2727 6.63586 38.0909 7.72672 38.0909H34.0904H36.3631H37.7268C38.9995 38.0909 39.9995 37.0909 39.9995 35.8182V35.6364C39.9995 34.2727 39.2722 33.0909 38.1813 32.2727Z" fill="#B06328"/>
    <path d="M26.819 10.0008H18.6371C17.9098 10.0008 17.2734 9.36445 17.2734 8.63711C17.2734 7.90984 17.9098 7.27344 18.6371 7.27344H26.8189C27.5462 7.27344 28.1826 7.90977 28.1826 8.63711C28.1826 9.36445 27.5463 10.0008 26.819 10.0008Z" fill="#FFCB5B"/>
    <path d="M18.6362 7.27344H23.1816C23.4544 7.27344 23.6362 7.45523 23.6362 7.72797C23.6362 8.0007 23.4544 8.1825 23.1816 8.1825H18.6362C18.3634 8.1825 18.1816 8.0007 18.1816 7.72797C18.1816 7.45531 18.3635 7.27344 18.6362 7.27344Z" fill="#FFE278"/>
    <path d="M26.8178 7.27344H26.3633V8.1825C26.3633 8.72797 25.9996 9.09157 25.4542 9.09157H17.3633C17.5451 9.63704 18.0905 10.0006 18.636 10.0006H26.8178C27.5451 10.0006 28.1815 9.3643 28.1815 8.63696C28.1815 7.90961 27.5451 7.27344 26.8178 7.27344Z" fill="#F6B545"/>
    <path d="M24.0913 9.08984H26.8185C27.0913 9.08984 27.273 9.27164 27.273 9.54437C27.273 9.81711 27.0913 9.99891 26.8185 9.99891H24.0913C23.8185 9.99891 23.6367 9.81711 23.6367 9.54437C23.6366 9.27164 23.8185 9.08984 24.0913 9.08984Z" fill="#F19920"/>
    <path d="M23.6366 10H21.8184V17.2727H23.6366V10Z" fill="#F6B545"/>
    <path d="M21.8184 10V10.9091H22.7274V17.2727H23.6365V10.9091V10H21.8184Z" fill="#F19920"/>
    <path d="M22.7278 30.9088C26.7444 30.9088 30.0005 27.6526 30.0005 23.636C30.0005 19.6194 26.7444 16.3633 22.7278 16.3633C18.7112 16.3633 15.4551 19.6194 15.4551 23.636C15.4551 27.6526 18.7112 30.9088 22.7278 30.9088Z" fill="#F6B545"/>
    <path d="M28.2736 19C29.3645 20.2727 30.0009 21.8182 30.0009 23.6364C30.0009 27.6364 26.7281 30.9091 22.7281 30.9091C20.9099 30.9091 19.3645 30.2728 18.0918 29.1819C19.4555 30.8182 21.4555 31.8182 23.6373 31.8182C27.6373 31.8182 30.91 28.5455 30.91 24.5455C30.9099 22.2727 29.9099 20.2727 28.2736 19Z" fill="#B06328"/>
    <path d="M22.727 30.0008C26.2415 30.0008 29.0906 27.1517 29.0906 23.6371C29.0906 20.1226 26.2415 17.2734 22.727 17.2734C19.2124 17.2734 16.3633 20.1226 16.3633 23.6371C16.3633 27.1517 19.2124 30.0008 22.727 30.0008Z" fill="#FFCB5B"/>
    <path d="M29.0902 23.6367C29.0902 27.1822 26.272 30.0004 22.7266 30.0004V30.9095C26.7266 30.9095 29.9993 27.6367 29.9993 23.6367H29.0902Z" fill="#F19920"/>
    <path d="M22.7278 17.2723V16.3633C18.7278 16.3633 15.4551 19.636 15.4551 23.636H16.3641C16.3642 20.0905 19.1823 17.2723 22.7278 17.2723Z" fill="#FFE27A"/>
    <path d="M23.6372 22.7289H21.819C21.2735 22.7289 20.9099 22.3652 20.9099 21.8198C20.9099 21.2744 21.2736 20.9108 21.819 20.9108H24.5463C25.0917 20.9108 25.4553 20.5471 25.4553 20.0017C25.4553 19.4563 25.0916 19.0927 24.5463 19.0927H23.6372C23.6372 18.5472 23.2735 18.1836 22.7281 18.1836C22.1827 18.1836 21.8191 18.5473 21.8191 19.0927C20.2736 19.0927 19.0918 20.2745 19.0918 21.8199C19.0918 23.3654 20.2736 24.5472 21.8191 24.5472H23.6373C24.1827 24.5472 24.5463 24.9109 24.5463 25.4563C24.5463 26.0016 24.1827 26.3653 23.6373 26.3653H20.91C20.3645 26.3653 20.0009 26.729 20.0009 27.2744C20.0009 27.8198 20.3646 28.1834 20.91 28.1834H21.8191C21.8191 28.7289 22.1827 29.0925 22.7281 29.0925C23.2736 29.0925 23.6372 28.7288 23.6372 28.1834C25.1827 28.1834 26.3645 27.0016 26.3645 25.4562C26.3645 23.9107 25.1827 22.7289 23.6372 22.7289Z" fill="#E78825"/>
</svg>
