<svg width="50" height="50" viewBox="0 0 50 50" fill="none" xmlns="http://www.w3.org/2000/svg">
    <path d="M50 25C50 11.1929 38.8071 0 25 0C11.1929 0 0 11.1929 0 25C0 38.8071 11.1929 50 25 50C38.8071 50 50 38.8071 50 25Z" fill="#03254C"/>
    <path d="M7.91406 37.0778L19.6005 16.8062L21.6835 20.2776L15.4345 31.2025L28.0337 27.9857L20.5944 15.1602L24.5283 8.33203L36.9066 29.5036L7.91406 37.0778Z" fill="#FFAD4F"/>
    <path d="M6.66602 40.8313L37.293 30.3672L43.3828 40.829L6.66602 40.8313Z" fill="black"/>
    <path opacity="0.5" d="M6.66602 40.8313L37.293 30.3672L43.3828 40.829L6.66602 40.8313Z" fill="#FFAD4F"/>
</svg>
