<svg width="31" height="30" viewBox="0 0 31 30" fill="none" xmlns="http://www.w3.org/2000/svg">
    <path d="M15.4701 0.884766C7.43104 0.884766 0.914062 7.40173 0.914062 15.4408C0.914062 23.4799 7.43104 29.9968 15.4701 29.9968C23.5092 29.9968 30.0261 23.4799 30.0261 15.4408C30.0261 7.40179 23.5092 0.884766 15.4701 0.884766ZM22.8979 18.0481H18.6052L16.076 24.7272C15.9349 25.0998 15.5687 25.3243 15.1898 25.3057C14.811 25.3242 14.4447 25.0997 14.3036 24.7272L11.7743 18.0481H8.04225C7.54807 18.0481 7.14371 17.6438 7.14371 17.1496C7.14371 16.6553 7.54801 16.251 8.04225 16.251H11.0938H13.0154H17.3641H19.2856H22.8978C23.392 16.251 23.7963 16.6553 23.7963 17.1496C23.7963 17.6438 23.3921 18.0481 22.8979 18.0481ZM22.8979 14.5738H19.9209H17.9993H12.3803H10.4588H8.04237C7.54819 14.5738 7.14383 14.1695 7.14383 13.6753C7.14383 13.1811 7.54813 12.7767 8.04237 12.7767H9.77826L7.92611 7.88567C7.7511 7.42351 7.98601 6.90216 8.44818 6.7272C8.91035 6.55218 9.43163 6.78716 9.60665 7.24927L11.6998 12.7767H18.6798L20.773 7.24927C20.948 6.7871 21.4693 6.55218 21.9314 6.7272C22.3936 6.90222 22.6285 7.42351 22.4535 7.88567L20.6013 12.7767H22.8978C23.392 12.7767 23.7964 13.181 23.7964 13.6753C23.7964 14.1695 23.3921 14.5738 22.8979 14.5738Z" fill="#FFAB2D"/>
</svg>
