<svg width="60" height="60" viewBox="0 0 60 60" fill="none" xmlns="http://www.w3.org/2000/svg">
    <g clip-path="url(#clip0)">
        <path d="M45.6651 40.4781C45.6994 35.8056 43.8524 32.1103 40.1682 29.5007C37.3228 27.4915 33.8696 26.4434 30.5297 25.4363C23.5722 23.327 21.5539 22.2161 21.5539 18.8889C21.5539 15.1828 26.3703 13.8641 30.4935 13.8641C33.4963 13.8641 36.951 14.7978 39.0964 16.1814L43.3499 9.59391C40.5459 7.77614 36.7083 6.53624 32.9187 6.1514V0H25.0724V6.58276C18.0976 8.11708 13.7039 12.6756 13.7039 18.8889C13.7039 23.2403 15.5121 26.6911 19.068 29.1251C21.7726 30.9833 25.071 31.981 28.2572 32.9471C35.0816 35.0098 37.8529 36.2668 37.8214 40.4295L37.8212 40.4602C37.8212 43.9541 33.191 45.196 29.2243 45.196C25.4773 45.196 21.4025 43.5539 19.0928 41.1122L13.3926 46.5041C16.3177 49.5978 20.5675 51.7851 25.0722 52.6424V59.0602H32.9187V52.7806C40.6691 51.6711 45.6574 47.0051 45.6651 40.4781Z" fill="#B06800"/>
    </g>
    <defs>
        <clipPath id="clip0">
            <rect width="59.06" height="59.06" fill="white"/>
        </clipPath>
    </defs>
</svg>
