<svg width="40" height="40" viewBox="0 0 40 40" fill="none" xmlns="http://www.w3.org/2000/svg">
    <path d="M20.5435 22.9269C20.1948 23.0662 19.8063 23.0662 19.4576 22.9269L15.7148 21.4297L20.0006 30.0011L24.2863 21.4297L20.5435 22.9269Z" fill="#DC3CCC"/>
    <path d="M19.9994 20L25.7137 18.0001L19.9994 10L14.2852 18.0001L19.9994 20Z" fill="#DC3CCC"/>
    <path d="M20 0C8.95433 0 0 8.95433 0 20C0 31.0457 8.95433 40 20 40C31.0457 40 40 31.0457 40 20C39.9878 8.95956 31.0404 0.0122071 20 0ZM28.4207 19.2105L21.2778 33.4962C20.9251 34.2021 20.0667 34.4881 19.3613 34.1354C19.0845 33.9972 18.8604 33.7731 18.7222 33.4962L11.5793 19.2105C11.3574 18.7649 11.3827 18.2361 11.646 17.8136L18.7889 6.38518C19.2637 5.7164 20.1901 5.55858 20.8589 6.03335C20.9953 6.13014 21.1143 6.24872 21.2111 6.38518L28.3536 17.8136C28.6173 18.2361 28.6426 18.7649 28.4207 19.2105Z" fill="#DC3CCC"/>
</svg>
