<svg width="15" height="15" viewBox="0 0 15 15" fill="none" xmlns="http://www.w3.org/2000/svg">
    <path d="M12.0926 13.194H2.92364C2.5034 13.194 2.15956 12.8501 2.15956 12.4299V3.26098C2.15956 2.84074 2.5034 2.4969 2.92364 2.4969H6.74403C7.16427 2.4969 7.5081 2.15307 7.5081 1.73283C7.5081 1.31258 7.16427 0.96875 6.74403 0.96875H2.15956C1.31144 0.96875 0.631409 1.65642 0.631409 2.4969V13.194C0.631409 14.0345 1.31908 14.7221 2.15956 14.7221H12.8566C13.6971 14.7221 14.3848 14.0345 14.3848 13.194V8.60952C14.3848 8.18928 14.041 7.84544 13.6207 7.84544C13.2005 7.84544 12.8566 8.18928 12.8566 8.60952V12.4299C12.8566 12.8501 12.5128 13.194 12.0926 13.194ZM9.03626 1.73283C9.03626 2.15307 9.38009 2.4969 9.80033 2.4969H11.7793L4.80327 9.47293C4.50528 9.77092 4.50528 10.2523 4.80327 10.5503C5.10126 10.8483 5.58263 10.8483 5.88062 10.5503L12.8566 3.57425V5.55321C12.8566 5.97345 13.2005 6.31729 13.6207 6.31729C14.041 6.31729 14.3848 5.97345 14.3848 5.55321V1.73283C14.3848 1.31258 14.041 0.96875 13.6207 0.96875H9.80033C9.38009 0.96875 9.03626 1.31258 9.03626 1.73283Z" fill="white"/>
</svg>
