<svg width="22" height="19" viewBox="0 0 22 19" fill="none" xmlns="http://www.w3.org/2000/svg">
    <path d="M5 18.5019C4.0111 18.5019 3.0444 18.2087 2.22215 17.6592C1.39991 17.1098 0.759043 16.3289 0.380605 15.4153C0.00216642 14.5017 -0.0968503 13.4963 0.0960759 12.5264C0.289002 11.5565 0.765206 10.6656 1.46447 9.96636C2.16373 9.2671 3.05465 8.7909 4.02455 8.59797C4.99446 8.40504 5.99979 8.50406 6.91342 8.8825C7.82705 9.26094 8.60794 9.9018 9.15735 10.724C9.70676 11.5463 10 12.513 10 13.5019C9.99841 14.8275 9.47112 16.0983 8.53378 17.0357C7.59644 17.973 6.3256 18.5003 5 18.5019ZM5 10.5019C4.40666 10.5019 3.82664 10.6778 3.33329 11.0075C2.83994 11.3371 2.45543 11.8057 2.22836 12.3538C2.0013 12.902 1.94189 13.5052 2.05765 14.0872C2.1734 14.6691 2.45912 15.2037 2.87868 15.6232C3.29824 16.0428 3.83279 16.3285 4.41473 16.4443C4.99667 16.56 5.59987 16.5006 6.14805 16.2735C6.69623 16.0465 7.16477 15.662 7.49441 15.1686C7.82406 14.6753 8 14.0952 8 13.5019C8 12.7062 7.68393 11.9432 7.12132 11.3806C6.55871 10.818 5.79565 10.5019 5 10.5019ZM18.5 18.4719C17.8078 18.4719 17.1311 18.2666 16.5555 17.882C15.9799 17.4975 15.5313 16.9508 15.2664 16.3113C15.0015 15.6717 14.9322 14.968 15.0673 14.2891C15.2023 13.6101 15.5356 12.9865 16.0251 12.497C16.5146 12.0075 17.1383 11.6742 17.8172 11.5391C18.4961 11.4041 19.1999 11.4734 19.8394 11.7383C20.4789 12.0032 21.0256 12.4518 21.4101 13.0274C21.7947 13.603 22 14.2797 22 14.9719C22 15.9002 21.6313 16.7904 20.9749 17.4468C20.3185 18.1031 19.4283 18.4719 18.5 18.4719ZM18.5 13.4719C18.2033 13.4719 17.9133 13.5599 17.6666 13.7247C17.42 13.8895 17.2277 14.1238 17.1142 14.3979C17.0007 14.672 16.9709 14.9736 17.0288 15.2645C17.0867 15.5555 17.2296 15.8228 17.4393 16.0326C17.6491 16.2423 17.9164 16.3852 18.2074 16.4431C18.4983 16.501 18.7999 16.4712 19.074 16.3577C19.3481 16.2442 19.5824 16.0519 19.7472 15.8053C19.912 15.5586 20 15.2686 20 14.9719C20 14.5741 19.842 14.1925 19.5607 13.9112C19.2794 13.6299 18.8978 13.4719 18.5 13.4719ZM14.05 14.4719H10.91C10.965 14.1413 10.9951 13.807 11 13.4719C10.9976 11.9943 10.4491 10.5696 9.46 9.4719H10C10.5304 9.4719 11.0391 9.26118 11.4142 8.88611C11.7893 8.51104 12 8.00233 12 7.4719V5.5619L10.75 4.3129L9.78 5.2819C9.71078 5.3535 9.628 5.41059 9.53648 5.44986C9.44495 5.48912 9.34653 5.50976 9.24695 5.51058C9.14736 5.5114 9.04861 5.49237 8.95646 5.45462C8.8643 5.41687 8.78059 5.36114 8.71021 5.29068C8.63982 5.22023 8.58417 5.13647 8.5465 5.04428C8.50883 4.95209 8.4899 4.85332 8.49082 4.75374C8.49173 4.65415 8.51246 4.55575 8.55181 4.46426C8.59116 4.37278 8.64834 4.29005 8.72 4.2209L11.72 1.2209C11.7892 1.1493 11.872 1.0922 11.9635 1.05294C12.055 1.01367 12.1535 0.993031 12.2531 0.992213C12.3526 0.991395 12.4514 1.01042 12.5435 1.04817C12.6357 1.08593 12.7194 1.14166 12.7898 1.21211C12.8602 1.28256 12.9158 1.36632 12.9535 1.45851C12.9912 1.5507 13.0101 1.64947 13.0092 1.74906C13.0083 1.84864 12.9875 1.94704 12.9482 2.03853C12.9088 2.13001 12.8517 2.21274 12.78 2.2819L11.811 3.2509L13.031 4.4709H19C19.5304 4.4709 20.0391 4.68161 20.4142 5.05668C20.7893 5.43176 21 5.94046 21 6.4709V11.2309C20.3597 10.801 19.6193 10.5437 18.8504 10.4839C18.0815 10.4242 17.3102 10.5639 16.6112 10.8897C15.9122 11.2155 15.3092 11.7162 14.8604 12.3434C14.4117 12.9707 14.1326 13.7031 14.05 14.4699V14.4719ZM8 7.4719H3C2.73479 7.4719 2.48043 7.36654 2.2929 7.179C2.10536 6.99147 2 6.73711 2 6.4719C2 6.20668 2.10536 5.95233 2.2929 5.76479C2.48043 5.57725 2.73479 5.4719 3 5.4719H6C6.53044 5.4719 7.03914 5.68261 7.41422 6.05768C7.78929 6.43276 8 6.94146 8 7.4719Z" fill="white"/>
</svg>
