<svg width="185" height="118" viewBox="0 0 185 118" fill="none" xmlns="http://www.w3.org/2000/svg">
    <path d="M185 118L67.5 0H0L117.5 118H185Z" fill="url(#paint0_linear)"/>
    <path d="M73.3412 32.4589L75.8189 29.9812L67.9106 22.0729L55.8955 34.0881L58.7635 36.9561L63.4304 32.2892L68.0803 36.9391L70.4732 34.5463L65.8232 29.8964L68.301 27.4187L73.3412 32.4589ZM79.3928 35.2861C80.2413 34.4376 80.2074 33.046 79.3249 32.1635C78.4255 31.2641 77.0169 31.2811 76.2023 32.0956C75.3708 32.9272 75.3708 34.3188 76.2702 35.2182C77.1527 36.1007 78.5273 36.1516 79.3928 35.2861ZM68.0395 46.2321L76.4908 37.7808L73.7077 34.9976L65.2563 43.4489L68.0395 46.2321ZM78.5935 56.7861L83.8204 51.5592C85.5175 49.8621 86.4678 47.2826 84.1937 45.0085C83.0228 43.8375 81.3936 43.5321 80.2566 43.8885L80.2226 43.8545L81.3936 42.6836L78.6953 39.9852L70.2439 48.4366L73.0441 51.2367L77.6261 46.6547C78.5935 45.6873 79.9511 45.3479 80.9354 46.3322C81.9367 47.3335 81.3427 48.4366 80.4093 49.37L75.7933 53.9859L78.5935 56.7861ZM94.8718 50.7651C95.7203 49.9166 95.6864 48.525 94.8039 47.6425C93.9045 46.7431 92.4959 46.7601 91.6813 47.5747C90.8498 48.4062 90.8498 49.7978 91.7492 50.6972C92.6317 51.5797 94.0063 51.6306 94.8718 50.7651ZM83.5185 61.7111L91.9698 53.2598L89.1867 50.4766L80.7353 58.928L83.5185 61.7111ZM99.7576 62.8804C99.7067 61.2682 98.8073 59.5541 97.5514 58.2983C95.9392 56.6861 93.2239 55.6 91.2044 57.6195C89.6092 59.2147 90.305 61.0985 91.2044 62.541C92.0869 63.9665 92.4433 64.6623 91.9172 65.1884C91.3742 65.7314 90.6444 65.375 90.1862 64.9168C89.3716 64.1023 89.0152 62.9313 89.0662 61.8961L85.8587 61.9809C85.8927 63.7119 86.86 65.5957 88.2346 66.9703C89.9656 68.7013 92.596 69.8383 94.7343 67.7C96.3805 66.0539 95.6168 64.0004 94.6155 62.4222C93.767 61.0985 93.4446 60.5045 93.9197 60.0293C94.4119 59.5372 95.1246 59.8766 95.6507 60.4027C96.3296 61.0815 96.635 62.0658 96.652 62.9313L99.7576 62.8804ZM102.094 80.2867L107.321 75.0598C109.018 73.3627 109.985 70.8002 107.694 68.5092C106.523 67.3382 105.013 67.0836 103.961 67.3891L103.927 67.3552L109.374 61.9076L106.591 59.1244L93.7616 71.9542L96.5447 74.7374L101.11 70.1723C102.111 69.171 103.452 68.9165 104.419 69.8838C105.42 70.885 104.826 71.9542 103.876 72.9045L99.294 77.4866L102.094 80.2867ZM111.635 79.4414C112.568 78.6438 114.095 78.6777 115.165 79.7469C116.268 80.8499 116.098 82.1397 115.216 83.0222L111.635 79.4414ZM116.709 86.6539C119.594 83.7689 119.56 80.3069 117.065 77.8122C114.503 75.2497 110.735 75.0121 107.969 77.7783C105.118 80.6293 105.61 84.3459 108.156 86.8915C109.87 88.6055 111.838 89.2843 113.79 88.9279L113.077 85.7714C112.195 85.9072 111.21 85.6696 110.328 84.7871C109.327 83.7859 109.055 82.1906 109.904 81.1724L116.03 87.2988C116.251 87.1121 116.488 86.8745 116.709 86.6539ZM123.272 101.464L136.101 88.6344L133.318 85.8512L128.04 91.1291L128.006 91.0951C128.091 90.0599 127.803 88.6174 126.564 87.3786C124.103 84.9178 120.505 85.4609 118.146 87.8198C115.788 90.1787 115.126 93.7934 117.671 96.339C118.791 97.4591 120.387 98.07 121.778 97.7646L121.812 97.7985L120.709 98.9016L123.272 101.464ZM124.85 94.5571C123.747 95.6602 121.897 95.9487 120.641 94.6929C119.317 93.3692 119.725 91.6042 120.828 90.5012C121.914 89.415 123.662 89.0247 124.986 90.3484C126.241 91.6042 125.919 93.488 124.85 94.5571Z" fill="black"/>
    <defs>
        <linearGradient id="paint0_linear" x1="112" y1="43" x2="77.5" y2="77.5" gradientUnits="userSpaceOnUse">
            <stop stop-color="#BC6C28"/>
            <stop offset="1" stop-color="#FF9800"/>
        </linearGradient>
    </defs>
</svg>
