<svg width="20" height="20" viewBox="0 0 20 20" fill="none" xmlns="http://www.w3.org/2000/svg">
    <path d="M10 0C4.47716 0 0 4.47715 0 10C0 15.5229 4.47716 20 10 20C15.5228 20 20 15.5228 20 10C20 4.47719 15.5229 0 10 0ZM15.1029 11.7912H12.1538L10.4162 16.3797C10.3193 16.6357 10.0677 16.79 9.80741 16.7772C9.54717 16.7899 9.29555 16.6357 9.19858 16.3797L7.46099 11.7912H4.89707C4.55757 11.7912 4.27977 11.5135 4.27977 11.1739C4.27977 10.8344 4.55753 10.5566 4.89707 10.5566H6.99348H8.31359H11.3012H12.6213H15.1028C15.4423 10.5566 15.7201 10.8344 15.7201 11.1739C15.7201 11.5135 15.4424 11.7912 15.1029 11.7912ZM15.1029 9.40438H13.0577H11.7376H7.87732H6.55721H4.89715C4.55765 9.40438 4.27985 9.12662 4.27985 8.78708C4.27985 8.44758 4.55761 8.16978 4.89715 8.16978H6.0897L4.81728 4.80962C4.69704 4.49212 4.85843 4.13395 5.17594 4.01375C5.49345 3.89352 5.85157 4.05494 5.97181 4.37241L7.40981 8.16978H12.2051L13.6431 4.37241C13.7633 4.0549 14.1214 3.89352 14.4389 4.01375C14.7564 4.13399 14.9178 4.49212 14.7976 4.80962L13.5252 8.16978H15.1028C15.4424 8.16978 15.7202 8.44754 15.7202 8.78708C15.7202 9.12658 15.4424 9.40438 15.1029 9.40438Z" fill="#2BC155"/>
</svg>
