<svg width="20" height="20" viewBox="0 0 20 20" fill="none" xmlns="http://www.w3.org/2000/svg">
    <path d="M9.16675 15.0013H10.8334V13.3346H9.16675V15.0013ZM10.0001 1.66797C5.40008 1.66797 1.66675 5.4013 1.66675 10.0013C1.66675 14.6013 5.40008 18.3346 10.0001 18.3346C14.6001 18.3346 18.3334 14.6013 18.3334 10.0013C18.3334 5.4013 14.6001 1.66797 10.0001 1.66797ZM10.0001 16.668C6.32508 16.668 3.33341 13.6763 3.33341 10.0013C3.33341 6.3263 6.32508 3.33464 10.0001 3.33464C13.6751 3.33464 16.6667 6.3263 16.6667 10.0013C16.6667 13.6763 13.6751 16.668 10.0001 16.668ZM10.0001 5.0013C8.15841 5.0013 6.66675 6.49297 6.66675 8.33464H8.33342C8.33342 7.41797 9.08342 6.66797 10.0001 6.66797C10.9167 6.66797 11.6667 7.41797 11.6667 8.33464C11.6667 10.0013 9.16675 9.79297 9.16675 12.5013H10.8334C10.8334 10.6263 13.3334 10.418 13.3334 8.33464C13.3334 6.49297 11.8417 5.0013 10.0001 5.0013Z" fill="black"/>
</svg>

