<svg width="25" height="22" viewBox="0 0 25 22" fill="none" xmlns="http://www.w3.org/2000/svg">
    <path d="M14.2002 0.867188C8.40186 0.867188 3.7002 5.56885 3.7002 11.3672H0.200195L4.73853 15.9055L4.8202 16.0689L9.53353 11.3672H6.03353C6.03353 6.85219 9.68519 3.20052 14.2002 3.20052C18.7152 3.20052 22.3669 6.85219 22.3669 11.3672C22.3669 15.8822 18.7152 19.5339 14.2002 19.5339C11.9485 19.5339 9.90686 18.6122 8.43686 17.1305L6.78019 18.7872C8.68186 20.6889 11.2952 21.8672 14.2002 21.8672C19.9985 21.8672 24.7002 17.1655 24.7002 11.3672C24.7002 5.56885 19.9985 0.867188 14.2002 0.867188ZM13.0335 6.70052V12.5339L18.0269 15.4972L18.8669 14.0855L14.7835 11.6589V6.70052H13.0335Z" fill="#FFAB2D"/>
</svg>
