<svg width="60" height="60" viewBox="0 0 60 60" fill="none" xmlns="http://www.w3.org/2000/svg">
    <g clip-path="url(#clip0)">
        <path d="M15.5725 41.7578H1.73027C0.774568 41.7578 0 42.5324 0 43.4881V57.3303C0 58.286 0.774568 59.0605 1.73027 59.0605H15.5725C16.5282 59.0605 17.3027 58.286 17.3027 57.3303C17.3027 56.722 17.3027 44.095 17.3027 43.4881C17.3027 42.5324 16.5282 41.7578 15.5725 41.7578ZM13.8422 45.2184V48.6789H3.46055V45.2184H13.8422ZM13.8422 55.6H3.46055V52.1395H13.8422V55.6Z" fill="#B06800"/>
        <path d="M36.4514 34.8359H22.6092C21.6535 34.8359 20.8789 35.6105 20.8789 36.5662V57.3295C20.8789 58.2852 21.6535 59.0598 22.6092 59.0598H36.4514C37.4071 59.0598 38.1816 58.2852 38.1816 57.3295C38.1816 56.6432 38.1816 37.6364 38.1816 36.5662C38.1816 35.6105 37.4071 34.8359 36.4514 34.8359ZM24.3395 45.2176H34.7211V48.6781H24.3395V45.2176ZM34.7211 38.2965V41.757H24.3395V38.2965H34.7211ZM34.7211 55.5992H24.3395V52.1387H34.7211V55.5992Z" fill="#B06800"/>
        <path d="M57.3303 20.9922H43.4881C42.5324 20.9922 41.7578 21.7668 41.7578 22.7225V57.3279C41.7578 58.2836 42.5324 59.0582 43.4881 59.0582H57.3303C58.286 59.0582 59.0605 58.2836 59.0605 57.3279C59.0605 56.6417 59.0605 23.3294 59.0605 22.7225C59.0605 21.7668 58.286 20.9922 57.3303 20.9922ZM45.2184 41.7555V38.2949H55.6V41.7555H45.2184ZM55.6 34.8344H45.2184V31.3738H55.6V34.8344ZM45.2184 45.216H55.6V48.6766H45.2184V45.216ZM55.6 24.4527V27.9133H45.2184V24.4527H55.6ZM55.6 55.5977H45.2184V52.1371H55.6V55.5977Z" fill="#B06800"/>
        <path d="M8.76738 31.2603C9.21031 31.2603 9.65325 31.0913 9.99074 30.7534L22.6096 18.135L28.3073 23.8323C28.9845 24.5095 30.0826 24.5077 30.7576 23.8291L48.5637 5.92393V8.65137C48.5637 9.60707 49.3382 10.3816 50.2939 10.3816C51.2497 10.3816 52.0242 9.60707 52.0242 8.65137V1.73027C52.0242 1.72937 52.0242 1.72847 52.0242 1.72802C52.0229 0.817825 51.3033 0.029739 50.3431 0.00225295C50.3264 0.00225295 50.3106 0 50.2939 0H43.3729C42.4171 0 41.6426 0.774568 41.6426 1.73027C41.6426 2.68598 42.4171 3.46055 43.3729 3.46055H46.1332L29.5275 20.1586L23.8329 14.4645C23.1575 13.7886 22.0621 13.7886 21.3862 14.4645L7.54403 28.3066C6.86814 28.9821 6.86814 30.0775 7.54403 30.7534C7.88152 31.0913 8.32445 31.2603 8.76738 31.2603Z" fill="#B06800"/>
    </g>
    <defs>
        <clipPath id="clip0">
            <rect width="59.06" height="59.06" fill="white"/>
        </clipPath>
    </defs>
</svg>
