<svg width="334" height="79" viewBox="0 0 334 79" fill="none" xmlns="http://www.w3.org/2000/svg">
    <path d="M363.476 23.313L355.46 14.0344C342.975 -0.417404 320.653 -0.67026 307.843 13.495L301.101 20.9508C292.637 30.31 278.077 30.7219 269.098 21.8561C260.264 13.1336 245.988 13.3703 237.448 22.3811L235.326 24.6198C227.72 32.645 215.769 34.7693 205.863 29.8566L198.917 26.4115C185.283 19.6497 168.754 25.4038 162.267 39.1705C155.212 54.1412 136.526 59.3808 122.716 50.2603L97.5163 33.6177C86.1984 26.1429 71.6068 25.7839 59.9349 32.693L8.52812 63.1231C3.63333 66.0206 -1.95021 67.5493 -7.63829 67.5493H-31.4999C-35.8492 67.5493 -39.375 71.0751 -39.375 75.4244C-39.375 79.7737 -35.8492 83.2995 -31.4999 83.2995H336.66C356.232 83.2995 372.098 67.4334 372.098 47.8616V46.4807C372.098 37.9736 369.038 29.7504 363.476 23.313Z" stroke="url(#paint0_linear)" stroke-width="5"/>
    <defs>
        <linearGradient id="paint0_linear" x1="166.362" y1="83.2994" x2="166.362" y2="-13.1704" gradientUnits="userSpaceOnUse">
            <stop stop-color="#FFAB2D"/>
            <stop offset="1" stop-color="#FFF72D"/>
        </linearGradient>
    </defs>
</svg>
