<svg width="70" height="70" viewBox="0 0 70 70" fill="none" xmlns="http://www.w3.org/2000/svg">
    <path d="M58.3192 0.467773H26.7396V42.8501H69.122V11.4948C69.1392 5.54124 64.2728 0.467773 58.3192 0.467773ZM17.0413 0.467773H11.7435C5.78995 0.467773 0.699219 5.3169 0.699219 11.512V16.8099H17.0413V0.467773ZM0.699219 26.7324H17.0413V43.0744H0.699219V26.7324ZM52.7971 69.1148H58.0949C64.0484 69.1148 69.1392 64.2658 69.1392 58.0707V52.7901H52.7971V69.1148ZM26.7396 52.7901H43.0817V69.1322H26.7396V52.7901ZM0.699219 52.7901V58.0878C0.699219 64.0414 5.54834 69.1322 11.7435 69.1322H17.0413V52.7901H0.699219Z" fill="white"/>
</svg>
