<svg width="40" height="40" viewBox="0 0 40 40" fill="none" xmlns="http://www.w3.org/2000/svg">
    <path d="M20 0C8.95433 0 0 8.95433 0 20C0 31.0457 8.95433 40 20 40C31.0457 40 40 31.0457 40 20C39.9874 8.95956 31.0404 0.012643 20 0ZM27.1429 30.0002H15.7144C14.9253 30.0002 14.2858 29.3607 14.2858 28.5716C14.2858 28.504 14.2906 28.4364 14.3002 28.3693L15.3753 20.8423L13.2037 21.3855C13.0904 21.4143 12.974 21.4287 12.8571 21.4287C12.068 21.4278 11.4293 20.7878 11.4298 19.9987C11.4306 19.3439 11.8762 18.7736 12.5114 18.6141L15.8112 17.7892L17.1571 8.36883C17.2687 7.58757 17.9924 7.04523 18.7736 7.15684C19.5549 7.26845 20.0972 7.99215 19.9856 8.77341L18.8041 17.0411L23.9394 15.7572C24.7036 15.5623 25.481 16.024 25.6754 16.7882C25.8703 17.5525 25.4086 18.3298 24.6444 18.5247C24.64 18.5256 24.6356 18.5269 24.6313 18.5277L18.3673 20.0937L17.3607 27.1429H27.1429C27.932 27.1429 28.5716 27.7825 28.5716 28.5716C28.5716 29.3602 27.932 30.0002 27.1429 30.0002Z" fill="#5F5F5F"/>
</svg>
