<svg width="209" height="50" viewBox="0 0 209 50" fill="none" xmlns="http://www.w3.org/2000/svg">
    <path d="M1.91211 44.192L19.8321 13.1076L23.0262 18.4306L13.4439 35.1829L32.7636 30.2503L21.3561 10.5836L27.3884 0.113281L46.3693 32.5779L1.91211 44.192Z" fill="#FFAD4F"/>
    <path d="M0 49.948L46.9634 33.9023L56.3016 49.9446L0 49.948Z" fill="black"/>
    <path opacity="0.5" d="M0 49.948L46.9634 33.9023L56.3016 49.9446L0 49.948Z" fill="#FFAD4F"/>
    <path d="M80.0067 8.9844C81.4115 8.97985 82.7607 9.53388 83.7574 10.5246C84.754 11.5153 85.3167 12.8617 85.3214 14.2675V36.3383H80.2725V27.1431H63.0004V36.336H57.9902V14.2675C57.9888 13.5736 58.1242 12.8862 58.3888 12.2448C58.6536 11.6035 59.0422 11.0207 59.5325 10.53C60.0228 10.0394 60.6052 9.65045 61.2461 9.3856C61.887 9.12075 62.5739 8.98518 63.2673 8.98669L80.0067 8.9844ZM80.2725 22.1282V14.2675C80.2733 14.2323 80.267 14.1974 80.2539 14.1648C80.2408 14.1322 80.2213 14.1026 80.1964 14.0777C80.1715 14.0528 80.142 14.0333 80.1094 14.0201C80.0767 14.0071 80.0418 14.0007 80.0067 14.0015H63.2662C63.2311 14.0007 63.1962 14.0071 63.1635 14.0201C63.131 14.0333 63.1014 14.0528 63.0765 14.0777C63.0518 14.1026 63.0321 14.1322 63.019 14.1648C63.006 14.1974 62.9996 14.2323 63.0004 14.2675V22.1317L80.2725 22.1282Z" fill="#FFAD4F"/>
    <path d="M111.933 8.98828H116.983V36.3399H111.516L94.6617 16.2817V36.3399H89.6504V8.98828H95.1169L111.933 29.0465V8.98828Z" fill="#FFAD4F"/>
    <path d="M143.518 8.98828H148.567V36.3399H143.1L126.246 16.2817V36.3399H121.234V8.98828H126.701L143.518 29.0465V8.98828Z" fill="#FFAD4F"/>
    <path d="M178.025 14.0031H157.943V20.1561H174.115V25.1709H157.943V31.325H178.025V36.3399H152.895V8.98828H178.025V14.0031Z" fill="#FFAD4F"/>
    <path d="M208.856 8.98438V10.3143L198.454 22.6602L208.856 35.0072V36.3371H203.346L195.184 26.6499C192.488 29.8462 189.68 33.1453 187.022 36.3371H181.518V35.0072L191.881 22.6613L181.518 10.3154V8.98438H187.022L195.184 18.6716C197.879 15.4752 200.688 12.1762 203.346 8.98438H208.856Z" fill="#FFAD4F"/>
</svg>
