<svg width="40" height="40" viewBox="0 0 40 40" fill="none" xmlns="http://www.w3.org/2000/svg">
    <path d="M20.4884 0.00327897C9.65902 -0.192729 0.73249 8.42345 0.536482 19.2447C0.340474 30.066 8.95665 39.0007 19.7779 39.1967C30.5992 39.3927 39.5339 30.7765 39.7299 19.9471C39.9259 9.12581 31.3097 0.19112 20.4884 0.00327897ZM19.8433 35.5215C11.0637 35.3582 4.04829 28.0896 4.21163 19.3101C4.3668 10.5305 11.6354 3.51509 20.4149 3.67026C29.2026 3.8336 36.2099 11.1022 36.0547 19.8817C35.8996 28.6613 28.6228 35.6767 19.8433 35.5215Z" fill="#345D9D"/>
    <path d="M20.3921 5.30693C12.5109 5.16809 5.9855 11.4648 5.84666 19.346C5.69966 27.219 11.9964 33.7444 19.8776 33.8914C27.7587 34.0302 34.2841 27.7335 34.423 19.8605C34.5618 11.9794 28.2732 5.45393 20.3921 5.30693ZM26.2805 27.8968H13.2786L14.8712 19.0846L13.0255 19.4685V17.9658L15.1489 17.5166L16.5291 9.93761H21.7151L20.5391 16.3895L22.3522 16.0057V17.5084L20.2614 17.9413L19.0527 24.6055H27.2442L26.2805 27.8968Z" fill="#345D9D"/>
</svg>
