<svg width="20" height="20" viewBox="0 0 20 20" fill="none" xmlns="http://www.w3.org/2000/svg">
    <path d="M19.7917 17.9545H1.875V0.227273C1.875 0.102273 1.78125 0 1.66667 0H0.208333C0.09375 0 0 0.102273 0 0.227273V19.7727C0 19.8977 0.09375 20 0.208333 20H19.7917C19.9062 20 20 19.8977 20 19.7727V18.1818C20 18.0568 19.9062 17.9545 19.7917 17.9545ZM3.75 16.1364H17.7083C17.8229 16.1364 17.9167 16.0341 17.9167 15.9091V3.52273C17.9167 3.31818 17.6901 3.21875 17.5599 3.3608L12.0833 9.33523L8.81771 5.8125C8.77855 5.7702 8.72568 5.74648 8.67057 5.74648C8.61547 5.74648 8.56259 5.7702 8.52344 5.8125L3.60156 11.1989C3.58245 11.2198 3.56731 11.2446 3.55703 11.2719C3.54675 11.2992 3.54153 11.3284 3.54167 11.358V15.9091C3.54167 16.0341 3.63542 16.1364 3.75 16.1364Z" fill="white"/>
</svg>
