<svg width="70" height="70" viewBox="0 0 70 70" fill="none" xmlns="http://www.w3.org/2000/svg">
    <g clip-path="url(#clip0)">
        <path d="M66.0592 2.73633L39.0684 22.7828L44.0596 10.9557L66.0592 2.73633Z" fill="#E2761B" stroke="#E2761B" stroke-width="0.116924" stroke-linecap="round" stroke-linejoin="round"/>
        <path d="M3.75 2.73633L30.5238 22.9727L25.7766 10.9557L3.75 2.73633Z" fill="#E4761B" stroke="#E4761B" stroke-width="0.116924" stroke-linecap="round" stroke-linejoin="round"/>
        <path d="M56.3487 49.2041L49.1602 60.2174L64.5411 64.4491L68.9625 49.4482L56.3487 49.2041Z" fill="#E4761B" stroke="#E4761B" stroke-width="0.116924" stroke-linecap="round" stroke-linejoin="round"/>
        <path d="M0.902344 49.4482L5.29683 64.4491L20.6775 60.2174L13.489 49.2041L0.902344 49.4482Z" fill="#E4761B" stroke="#E4761B" stroke-width="0.116924" stroke-linecap="round" stroke-linejoin="round"/>
        <path d="M19.8114 30.5954L15.5254 37.0786L30.7976 37.7568L30.255 21.3452L19.8114 30.5954Z" fill="#E4761B" stroke="#E4761B" stroke-width="0.116924" stroke-linecap="round" stroke-linejoin="round"/>
        <path d="M50.0002 30.5953L39.421 21.1553L39.0684 37.7567L54.3133 37.0786L50.0002 30.5953Z" fill="#E4761B" stroke="#E4761B" stroke-width="0.116924" stroke-linecap="round" stroke-linejoin="round"/>
        <path d="M20.6777 60.2173L29.8465 55.7415L21.9255 49.5566L20.6777 60.2173Z" fill="#E4761B" stroke="#E4761B" stroke-width="0.116924" stroke-linecap="round" stroke-linejoin="round"/>
        <path d="M39.9648 55.7415L49.1606 60.2173L47.8858 49.5566L39.9648 55.7415Z" fill="#E4761B" stroke="#E4761B" stroke-width="0.116924" stroke-linecap="round" stroke-linejoin="round"/>
        <path d="M49.1606 60.2174L39.9648 55.7417L40.6973 61.7366L40.6158 64.2593L49.1606 60.2174Z" fill="#D7C1B3" stroke="#D7C1B3" stroke-width="0.116924" stroke-linecap="round" stroke-linejoin="round"/>
        <path d="M20.6777 60.2174L29.2226 64.2593L29.1684 61.7366L29.8465 55.7417L20.6777 60.2174Z" fill="#D7C1B3" stroke="#D7C1B3" stroke-width="0.116924" stroke-linecap="round" stroke-linejoin="round"/>
        <path d="M29.3587 45.5965L21.709 43.3449L27.1071 40.8765L29.3587 45.5965Z" fill="#233447" stroke="#233447" stroke-width="0.116924" stroke-linecap="round" stroke-linejoin="round"/>
        <path d="M40.4531 45.5965L42.7047 40.8765L48.13 43.3449L40.4531 45.5965Z" fill="#233447" stroke="#233447" stroke-width="0.116924" stroke-linecap="round" stroke-linejoin="round"/>
        <path d="M20.6788 60.2174L21.9808 49.2041L13.4902 49.4482L20.6788 60.2174Z" fill="#CD6116" stroke="#CD6116" stroke-width="0.116924" stroke-linecap="round" stroke-linejoin="round"/>
        <path d="M47.8594 49.2041L49.1614 60.2174L56.3499 49.4482L47.8594 49.2041Z" fill="#CD6116" stroke="#CD6116" stroke-width="0.116924" stroke-linecap="round" stroke-linejoin="round"/>
        <path d="M54.3133 37.0786L39.0684 37.757L40.4789 45.5965L42.7305 40.8765L48.1556 43.3449L54.3133 37.0786Z" fill="#CD6116" stroke="#CD6116" stroke-width="0.116924" stroke-linecap="round" stroke-linejoin="round"/>
        <path d="M21.7063 43.3449L27.1317 40.8765L29.3559 45.5965L30.7936 37.757L15.5215 37.0786L21.7063 43.3449Z" fill="#CD6116" stroke="#CD6116" stroke-width="0.116924" stroke-linecap="round" stroke-linejoin="round"/>
        <path d="M15.5254 37.0786L21.9272 49.557L21.7102 43.3449L15.5254 37.0786Z" fill="#E4751F" stroke="#E4751F" stroke-width="0.116924" stroke-linecap="round" stroke-linejoin="round"/>
        <path d="M48.1579 43.3449L47.8867 49.557L54.3157 37.0786L48.1579 43.3449Z" fill="#E4751F" stroke="#E4751F" stroke-width="0.116924" stroke-linecap="round" stroke-linejoin="round"/>
        <path d="M30.7971 37.7568L29.3594 45.5963L31.1497 54.8464L31.5566 42.6667L30.7971 37.7568Z" fill="#E4751F" stroke="#E4751F" stroke-width="0.116924" stroke-linecap="round" stroke-linejoin="round"/>
        <path d="M39.0684 37.7568L38.3359 42.6395L38.6614 54.8464L40.4789 45.5963L39.0684 37.7568Z" fill="#E4751F" stroke="#E4751F" stroke-width="0.116924" stroke-linecap="round" stroke-linejoin="round"/>
        <path d="M40.4796 45.5963L38.6621 54.8464L39.9643 55.7416L47.8853 49.5568L48.1565 43.3447L40.4796 45.5963Z" fill="#F6851B" stroke="#F6851B" stroke-width="0.116924" stroke-linecap="round" stroke-linejoin="round"/>
        <path d="M21.709 43.3447L21.926 49.5568L29.847 55.7416L31.149 54.8464L29.3587 45.5963L21.709 43.3447Z" fill="#F6851B" stroke="#F6851B" stroke-width="0.116924" stroke-linecap="round" stroke-linejoin="round"/>
        <path d="M40.6157 64.2597L40.6971 61.7369L40.019 61.1402H29.7922L29.1684 61.7369L29.2226 64.2597L20.6777 60.2178L23.6616 62.6591L29.7108 66.8639H40.1002L46.1765 62.6591L49.1605 60.2178L40.6157 64.2597Z" fill="#C0AD9E" stroke="#C0AD9E" stroke-width="0.116924" stroke-linecap="round" stroke-linejoin="round"/>
        <path d="M39.9643 55.742L38.6623 54.8467H31.1483L29.8461 55.742L29.168 61.7369L29.7918 61.1402H40.0186L40.6968 61.7369L39.9643 55.742Z" fill="#161616" stroke="#161616" stroke-width="0.116924" stroke-linecap="round" stroke-linejoin="round"/>
        <path d="M67.1998 24.0849L69.5056 13.0173L66.0604 2.73633L39.9648 22.1046L50.0016 30.5953L64.1889 34.7455L67.3355 31.0834L65.9792 30.1069L68.1494 28.1268L66.4674 26.8246L68.6375 25.17L67.1998 24.0849Z" fill="#763D16" stroke="#763D16" stroke-width="0.116924" stroke-linecap="round" stroke-linejoin="round"/>
        <path d="M0.332031 13.0173L2.63778 24.0849L1.17295 25.17L3.34306 26.8246L1.68835 28.1268L3.85847 30.1069L2.50215 31.0834L5.6217 34.7455L19.8088 30.5953L29.8457 22.1046L3.74997 2.73633L0.332031 13.0173Z" fill="#763D16" stroke="#763D16" stroke-width="0.116924" stroke-linecap="round" stroke-linejoin="round"/>
        <path d="M64.1898 34.7455L50.0026 30.5952L54.3157 37.0782L47.8867 49.5566L56.3501 49.448H68.9639L64.1898 34.7455Z" fill="#F6851B" stroke="#F6851B" stroke-width="0.116924" stroke-linecap="round" stroke-linejoin="round"/>
        <path d="M19.8095 30.5952L5.62235 34.7455L0.902344 49.448H13.489L21.9254 49.5566L15.5235 37.0782L19.8095 30.5952Z" fill="#F6851B" stroke="#F6851B" stroke-width="0.116924" stroke-linecap="round" stroke-linejoin="round"/>
        <path d="M39.0693 37.7566L39.9646 22.1046L44.0877 10.9556H25.7773L29.8464 22.1046L30.7957 37.7566L31.1212 42.6935L31.1484 54.8461H38.6624L38.7167 42.6935L39.0693 37.7566Z" fill="#F6851B" stroke="#F6851B" stroke-width="0.116924" stroke-linecap="round" stroke-linejoin="round"/>
    </g>
    <defs>
        <clipPath id="clip0">
            <rect width="69.6" height="69.6" fill="white" transform="translate(0.119141)"/>
        </clipPath>
    </defs>
</svg>
