<svg width="16" height="19" viewBox="0 0 16 19" fill="none" xmlns="http://www.w3.org/2000/svg">
    <path d="M8.00078 9.30078H5.20078C4.20078 9.30078 3.30078 10.2008 3.30078 11.2008V13.1008C3.30078 14.2008 4.10078 15.0008 5.20078 15.0008H8.00078C9.00078 15.0008 9.90078 14.1008 9.90078 13.1008V11.2008C9.90078 10.1008 9.10078 9.30078 8.00078 9.30078Z" fill="white"/>
    <path d="M14.3992 3.60078C13.4992 2.00078 11.5992 1.40078 10.0992 2.20078C10.0992 1.10078 9.29922 0.300781 8.19922 0.300781H5.39922C4.39922 0.300781 3.49922 1.20078 3.49922 2.20078V4.60078C3.49922 5.00078 3.19922 5.40078 2.89922 5.60078C1.29922 6.40078 0.199219 8.10078 0.199219 10.0008V14.9008C0.199219 17.1008 1.89922 18.8008 3.99922 18.8008H9.69922C11.7992 18.8008 13.4992 17.1008 13.4992 14.9008V10.0008C13.4992 9.40078 13.3992 8.90078 13.1992 8.40078H13.2992C14.7992 7.40078 15.3992 5.30078 14.3992 3.60078ZM5.39922 2.20078H8.19922V4.40078H5.39922V2.20078ZM11.4992 14.9008C11.4992 16.0008 10.6992 16.8008 9.59922 16.8008H3.99922C2.99922 16.8008 2.09922 15.9008 2.09922 14.9008V10.0008C2.09922 8.80078 2.69922 7.80078 3.69922 7.40078C4.29922 7.10078 4.79922 6.60078 5.19922 5.90078H8.59922C8.89922 6.60078 9.49922 7.10078 10.0992 7.40078C11.0992 7.90078 11.6992 8.90078 11.6992 10.0008V14.9008H11.4992ZM12.2992 6.60078C11.7992 6.20078 11.2992 5.80078 10.7992 5.60078C10.3992 5.40078 10.1992 5.00078 10.1992 4.60078V4.50078L10.8992 4.00078C11.5992 3.60078 12.4992 3.90078 12.7992 4.60078C13.1992 5.30078 12.9992 6.20078 12.2992 6.60078Z" fill="white"/>
</svg>
