<svg width="13" height="16" viewBox="0 0 13 16" fill="none" xmlns="http://www.w3.org/2000/svg">
    <path d="M6.66663 4.41797V6.66797L9.66663 3.66797L6.66663 0.667969V2.91797C3.35163 2.91797 0.666626 5.60297 0.666626 8.91797C0.666626 10.0955 1.01163 11.1905 1.59663 12.113L2.69163 11.018C2.35413 10.3955 2.16663 9.67547 2.16663 8.91797C2.16663 6.43547 4.18413 4.41797 6.66663 4.41797ZM11.7366 5.72297L10.6416 6.81797C10.9716 7.44797 11.1666 8.16047 11.1666 8.91797C11.1666 11.4005 9.14913 13.418 6.66663 13.418V11.168L3.66663 14.168L6.66663 17.168V14.918C9.98163 14.918 12.6666 12.233 12.6666 8.91797C12.6666 7.74047 12.3216 6.64547 11.7366 5.72297Z" fill="black"/>
</svg>
