<svg width="24" height="24" viewBox="0 0 24 24" fill="none" xmlns="http://www.w3.org/2000/svg">
    <path d="M9.65926 19.3113C11.8044 19.3114 13.8882 18.5956 15.5806 17.2772L21.9654 23.6629C22.4423 24.1236 23.2023 24.1104 23.663 23.6334C24.1123 23.1681 24.1123 22.4303 23.663 21.965L17.2782 15.5793C20.5491 11.3681 19.7874 5.3023 15.5769 2.03089C11.3663 -1.24052 5.30149 -0.478718 2.03058 3.73247C-1.24033 7.94365 -0.478646 14.0095 3.7319 17.2809C5.42703 18.5979 7.5127 19.3124 9.65926 19.3113ZM4.52915 4.52615C7.36246 1.69235 11.9562 1.6923 14.7895 4.52604C17.6229 7.35978 17.6229 11.9542 14.7896 14.788C11.9563 17.6218 7.36262 17.6218 4.52926 14.7881C4.5292 14.788 4.5292 14.788 4.52915 14.788C1.69584 11.9749 1.67915 7.39723 4.49181 4.56349C4.50424 4.55101 4.51667 4.53858 4.52915 4.52615Z" fill="white"/>
</svg>
