<svg width="23" height="24" viewBox="0 0 23 24" fill="none" xmlns="http://www.w3.org/2000/svg">
    <path d="M11.2 9.6447C9.83111 9.6447 8.71111 10.7647 8.71111 12.1336C8.71111 13.5025 9.83111 14.6225 11.2 14.6225C12.5689 14.6225 13.6889 13.5025 13.6889 12.1336C13.6889 10.7647 12.5689 9.6447 11.2 9.6447ZM19.9111 0.933594H2.48889C1.10756 0.933594 0 2.05359 0 3.42248V20.8447C0 22.2136 1.10756 23.3336 2.48889 23.3336H19.9111C21.2924 23.3336 22.4 22.2136 22.4 20.8447V3.42248C22.4 2.05359 21.2924 0.933594 19.9111 0.933594ZM17.7333 12.1336C17.7333 12.4198 17.7084 12.706 17.6711 12.9798L19.5129 14.4234C19.6747 14.5603 19.7244 14.7967 19.6124 14.9834L17.8702 17.9949C17.7582 18.1816 17.5342 18.2563 17.3351 18.1816L15.1698 17.3105C14.7218 17.6589 14.224 17.9451 13.7013 18.1691L13.3778 20.4714C13.3404 20.6829 13.1538 20.8447 12.9422 20.8447H9.45778C9.24622 20.8447 9.05956 20.6829 9.02222 20.4838L8.69867 18.1816C8.16356 17.9576 7.67822 17.6714 7.23022 17.3229L5.06489 18.194C4.86578 18.2687 4.64178 18.194 4.52978 18.0074L2.78756 14.9958C2.67555 14.8091 2.72533 14.5727 2.88711 14.4358L4.72889 12.9923C4.69156 12.706 4.66667 12.4198 4.66667 12.1336C4.66667 11.8474 4.69156 11.5611 4.72889 11.2874L2.88711 9.84381C2.72533 9.70693 2.67555 9.47048 2.78756 9.28382L4.52978 6.27226C4.64178 6.08559 4.86578 6.01093 5.06489 6.08559L7.23022 6.9567C7.67822 6.60826 8.176 6.32204 8.69867 6.09804L9.02222 3.79582C9.05956 3.58426 9.24622 3.42248 9.45778 3.42248H12.9422C13.1538 3.42248 13.3404 3.58426 13.3778 3.78337L13.7013 6.08559C14.2364 6.30959 14.7218 6.59582 15.1698 6.94426L17.3351 6.07315C17.5342 5.99848 17.7582 6.07315 17.8702 6.25982L19.6124 9.27137C19.7244 9.45804 19.6747 9.69448 19.5129 9.83137L17.6711 11.2749C17.7084 11.5611 17.7333 11.8474 17.7333 12.1336Z" fill="black"/>
</svg>
