<svg width="24" height="24" viewBox="0 0 24 24" fill="none" xmlns="http://www.w3.org/2000/svg">
    <path d="M21.1802 13.17C21.2265 12.795 21.2574 12.405 21.2574 12C21.2574 11.595 21.2265 11.205 21.1648 10.83L23.7723 8.85C24.0037 8.67 24.0654 8.34 23.9266 8.085L21.4579 3.93C21.3036 3.66 20.9796 3.57 20.7019 3.66L17.6316 4.86C16.9835 4.38 16.3047 3.99 15.5487 3.69L15.0858 0.51C15.0395 0.21 14.7772 0 14.4686 0H9.53137C9.22279 0 8.97593 0.21 8.92964 0.51L8.46677 3.69C7.71076 3.99 7.01646 4.395 6.38387 4.86L3.31351 3.66C3.03579 3.555 2.71178 3.66 2.55749 3.93L0.0888635 8.085C-0.0654259 8.355 -0.0037099 8.67 0.243153 8.85L2.85064 10.83C2.78893 11.205 2.74264 11.61 2.74264 12C2.74264 12.39 2.7735 12.795 2.83521 13.17L0.227724 15.15C-0.00371027 15.33 -0.0654259 15.66 0.0734346 15.915L2.54206 20.07C2.69635 20.34 3.02036 20.43 3.29808 20.34L6.36844 19.14C7.01646 19.62 7.69533 20.01 8.45135 20.31L8.91421 23.49C8.97593 23.79 9.22279 24 9.53137 24H14.4686C14.7772 24 15.0395 23.79 15.0704 23.49L15.5332 20.31C16.2892 20.01 16.9835 19.605 17.6161 19.14L20.6865 20.34C20.9642 20.445 21.2882 20.34 21.4425 20.07L23.9111 15.915C24.0654 15.645 24.0037 15.33 23.7568 15.15L21.1802 13.17ZM12 16.5C9.45423 16.5 7.37132 14.475 7.37132 12C7.37132 9.525 9.45423 7.5 12 7.5C14.5458 7.5 16.6287 9.525 16.6287 12C16.6287 14.475 14.5458 16.5 12 16.5Z" fill="#FF9800"/>
</svg>
