<svg width="40" height="40" viewBox="0 0 40 40" fill="none" xmlns="http://www.w3.org/2000/svg">
    <path d="M20 0C8.95433 0 0 8.95433 0 20C0 31.0457 8.95433 40 20 40C31.0457 40 40 31.0457 40 20C39.9874 8.95956 31.0404 0.012643 20 0ZM29.8132 17.8001C29.0694 18.4571 28.2106 18.9707 27.2798 19.3142C26.621 19.5274 26.0185 19.8853 25.5163 20.3623C24.8497 21.9496 25.2591 23.7855 26.5378 24.9395C26.5814 24.9831 26.6223 25.0298 26.6603 25.079C28.269 27.1403 28.1055 30.073 26.2779 31.9429C24.2546 33.9627 20.9774 33.9627 18.9537 31.9429C17.6732 30.4061 17.2547 28.327 17.8407 26.4144C17.9823 25.3092 17.6044 24.2001 16.8166 23.4119C16.0349 22.6585 14.9511 22.305 13.8755 22.4519C11.9629 23.0369 9.88425 22.6171 8.34834 21.3362C6.32589 19.3164 6.32414 16.0397 8.34398 14.0177C8.34529 14.0159 8.34703 14.0146 8.34834 14.0133C10.2173 12.1844 13.1514 12.0209 15.2122 13.631C16.6548 15.0566 18.7919 15.5366 19.9276 14.7723C20.4063 14.2714 20.7647 13.6684 20.9766 13.0088C21.3201 12.0789 21.8328 11.2209 22.4889 10.478C24.5114 8.45559 27.7899 8.45559 29.8123 10.4776C31.8352 12.5001 31.8352 15.7785 29.8132 17.801V17.8001Z" fill="#2B98D6"/>
    <path d="M24.063 12.6757C23.6757 13.173 23.3694 13.7284 23.1563 14.3215C22.7677 15.4907 22.0503 16.5235 21.0907 17.2964C18.3849 18.7494 15.0393 18.1875 12.9564 15.9304C12.0367 15.3135 10.8107 15.421 10.0123 16.1886C9.11127 17.0884 9.1104 18.5488 10.0102 19.4499C10.011 19.4503 10.0115 19.4512 10.0123 19.4516C10.5556 19.9927 11.3293 20.0785 12.9815 19.7761C13.3164 19.7155 13.656 19.6847 13.9965 19.6847C15.6518 19.7116 17.2352 20.3657 18.4269 21.5146C19.8708 22.9585 20.5406 25.0042 20.2295 27.0225C19.9219 28.6709 20.0077 29.4473 20.5514 29.9918C21.4529 30.8916 22.9128 30.8916 23.8143 29.9918C24.5932 29.1596 24.6703 27.8916 23.9976 26.9714C21.7977 24.8846 21.2684 21.5826 22.7057 18.9127C23.4786 17.9536 24.5113 17.237 25.6806 16.8497C26.2745 16.6357 26.8303 16.3277 27.3272 15.9378C28.2278 15.0367 28.2278 13.5759 27.3267 12.6752C26.4252 11.7746 24.9649 11.775 24.0643 12.6761L24.063 12.6757Z" fill="#2B98D6"/>
</svg>
