<svg width="23" height="23" viewBox="0 0 23 23" fill="none" xmlns="http://www.w3.org/2000/svg">
    <path d="M22.1327 11.6226L19.7357 8.75127L20.0697 4.95365L16.5233 4.10973L14.6666 0.816406L11.3265 2.31899L7.98639 0.816406L6.12968 4.09944L2.58327 4.93307L2.91728 8.74098L0.520264 11.6226L2.91728 14.494L2.58327 18.3019L6.12968 19.1458L7.98639 22.4289L11.3265 20.916L14.6666 22.4186L16.5233 19.1355L20.0697 18.2916L19.7357 14.494L22.1327 11.6226ZM8.75265 15.7496L6.41457 13.2796C6.03144 12.8782 6.03144 12.2298 6.41457 11.8285L6.48334 11.7564C6.86647 11.3551 7.4952 11.3551 7.87833 11.7564L9.45997 13.4237L14.5192 8.11319C14.9024 7.71181 15.5311 7.71181 15.9142 8.11319L15.983 8.18523C16.3661 8.5866 16.3661 9.23498 15.983 9.63635L10.1673 15.7496C9.76451 16.151 9.1456 16.151 8.75265 15.7496Z" fill="black"/>
</svg>
