<svg width="20" height="15" viewBox="0 0 20 15" fill="none" xmlns="http://www.w3.org/2000/svg">
    <path d="M16.6513 0.153023L19.4413 2.94302C19.487 2.98944 19.523 3.04447 19.5472 3.10491C19.5715 3.16535 19.5835 3.23 19.5825 3.29511C19.5816 3.36023 19.5678 3.42451 19.5418 3.48423C19.5158 3.54395 19.4783 3.59793 19.4313 3.64302L16.6413 6.43302C16.5714 6.50154 16.4829 6.54805 16.3869 6.56677C16.2908 6.58549 16.1914 6.5756 16.1009 6.53834C16.0104 6.50107 15.9328 6.43807 15.8778 6.35713C15.8227 6.27619 15.7927 6.18089 15.7913 6.08302V4.29302H1.79129C1.52607 4.29302 1.27172 4.18767 1.08418 4.00013C0.896648 3.81259 0.791291 3.55824 0.791291 3.29302C0.791291 3.02781 0.896648 2.77345 1.08418 2.58592C1.27172 2.39838 1.52607 2.29302 1.79129 2.29302H15.7913V0.503023C15.7907 0.403091 15.82 0.305271 15.8756 0.222184C15.9311 0.139097 16.0102 0.0745546 16.1028 0.0368843C16.1954 -0.000785965 16.2971 -0.00985552 16.3949 0.0108457C16.4926 0.0315468 16.5819 0.0810691 16.6513 0.153023ZM2.93129 14.433L0.141291 11.643C0.0956188 11.5966 0.0596163 11.5416 0.035371 11.4811C0.0111256 11.4207 -0.000880006 11.356 5.02002e-05 11.2909C0.000980406 11.2258 0.0148278 11.1615 0.0407897 11.1018C0.0667517 11.0421 0.104311 10.9881 0.151291 10.943L2.94129 8.15302C3.01118 8.0845 3.09964 8.038 3.1957 8.01928C3.29177 8.00056 3.39121 8.01044 3.48172 8.04771C3.57222 8.08497 3.64979 8.14798 3.70482 8.22891C3.75985 8.30985 3.78992 8.40516 3.79129 8.50302V10.293H17.7913C18.0565 10.293 18.3109 10.3984 18.4984 10.5859C18.6859 10.7735 18.7913 11.0278 18.7913 11.293C18.7913 11.5582 18.6859 11.8126 18.4984 12.0001C18.3109 12.1877 18.0565 12.293 17.7913 12.293H3.79129V14.083C3.7919 14.183 3.76254 14.2808 3.70701 14.3639C3.65149 14.4469 3.57234 14.5115 3.47978 14.5492C3.38722 14.5868 3.28549 14.5959 3.18773 14.5752C3.08996 14.5545 3.00064 14.505 2.93129 14.433Z" fill="white"/>
</svg>
