<svg width="20" height="16" viewBox="0 0 20 16" fill="none" xmlns="http://www.w3.org/2000/svg">
    <path d="M19.9974 15.1954L18.9771 8.901C18.9619 8.80201 18.8756 8.73095 18.7766 8.73095H12.137C12.038 8.73095 11.9518 8.80201 11.9365 8.901L10.9162 15.1954C10.9137 15.2056 10.9137 15.2182 10.9137 15.2284C10.9137 15.3401 11.0051 15.4314 11.1167 15.4314H19.7969C19.8071 15.4314 19.8198 15.4314 19.8299 15.4289C19.939 15.4111 20.0152 15.3071 19.9974 15.1954ZM8.06344 8.901C8.04821 8.80201 7.96191 8.73095 7.86293 8.73095H1.22335C1.12436 8.73095 1.03807 8.80201 1.02284 8.901L0.00253803 15.1954C-3.87656e-08 15.2056 0 15.2182 0 15.2284C0 15.3401 0.0913704 15.4314 0.203045 15.4314H8.88323C8.89338 15.4314 8.90607 15.4314 8.91623 15.4289C9.0279 15.4111 9.10151 15.3071 9.08374 15.1954L8.06344 8.901ZM5.68527 6.7005H14.3655C14.3756 6.7005 14.3883 6.7005 14.3984 6.69796C14.5101 6.68019 14.5837 6.57613 14.566 6.46446L13.5457 0.17005C13.5304 0.0710658 13.4441 0 13.3452 0H6.70557C6.60659 0 6.52029 0.0710658 6.50506 0.17005L5.48476 6.46446C5.48222 6.47461 5.48222 6.4873 5.48222 6.49745C5.48222 6.60912 5.57359 6.7005 5.68527 6.7005Z" fill="white"/>
</svg>
