<svg width="86" height="52" viewBox="0 0 86 52" fill="none" xmlns="http://www.w3.org/2000/svg">
    <path d="M17.7976 10.2304C31.5985 -3.28187 53.9742 -3.28187 67.7751 10.2304L69.4361 11.8566C70.1261 12.5322 70.1261 13.6276 69.4361 14.3032L63.7542 19.8662C63.4092 20.204 62.8498 20.204 62.5048 19.8662L60.2191 17.6283C50.5913 8.20182 34.9814 8.20182 25.3536 17.6283L22.9058 20.0249C22.5608 20.3627 22.0014 20.3627 21.6564 20.0249L15.9746 14.4619C15.2845 13.7863 15.2845 12.6909 15.9746 12.0153L17.7976 10.2304ZM79.5256 21.7352L84.5825 26.6862C85.2725 27.3619 85.2725 28.4572 84.5825 29.1328L61.7809 51.4578C61.0909 52.1334 59.9721 52.1335 59.282 51.4579C59.282 51.4578 59.282 51.4578 59.282 51.4578L43.0988 35.6131C42.9263 35.4442 42.6466 35.4442 42.4741 35.6131C42.4741 35.6131 42.4741 35.6131 42.4741 35.6131L26.2913 51.4578C25.6012 52.1335 24.4825 52.1335 23.7924 51.4579C23.7924 51.4579 23.7924 51.4579 23.7924 51.4578L0.99019 29.1326C0.300145 28.4569 0.300145 27.3616 0.99019 26.686L6.04703 21.7349C6.73707 21.0593 7.85585 21.0593 8.5459 21.7349L24.7293 37.5798C24.9018 37.7487 25.1815 37.7487 25.354 37.5798C25.354 37.5798 25.354 37.5798 25.354 37.5798L41.5366 21.7349C42.2267 21.0593 43.3454 21.0592 44.0355 21.7348C44.0355 21.7348 44.0355 21.7349 44.0355 21.7349L60.2189 37.5798C60.3914 37.7487 60.6711 37.7487 60.8436 37.5798L77.0268 21.7352C77.7168 21.0596 78.8356 21.0596 79.5256 21.7352Z" fill="#3B99FC"/>
</svg>
